<svg t="1642991901535" class="icon" viewBox="0 0 1024 1024" version="1.1" xmlns="http://www.w3.org/2000/svg" p-id="18058" width="200" height="200"><path d="M878 848H766c-17.67 0-32-14.33-32-32s14.33-32 32-32h112c9.93 0 18-8.07 18-18V162c0-9.93-8.07-18-18-18H146c-9.93 0-18 8.07-18 18v604c0 9.93 8.07 18 18 18h112c17.67 0 32 14.33 32 32s-14.33 32-32 32H146c-45.21 0-82-36.79-82-82V162c0-45.21 36.79-82 82-82h732c45.21 0 82 36.79 82 82v604c0 45.21-36.79 82-82 82z" p-id="18059"></path><path d="M511.5 944c-59.97 0-116.34-23.35-158.75-65.75S287 779.47 287 719.5s23.35-116.34 65.75-158.75S451.53 495 511.5 495s116.34 23.35 158.75 65.75S736 659.53 736 719.5s-23.35 116.34-65.75 158.75S571.47 944 511.5 944z m0-385C423 559 351 631 351 719.5S423 880 511.5 880 672 808 672 719.5 600 559 511.5 559zM96 272h832v64H96z" p-id="18060"></path><path d="M599.34 750.9H512.1c-17.67 0-32-14.33-32-32v-87.24c0-17.67 14.33-32 32-32s32 14.33 32 32v55.24h55.24c17.67 0 32 14.33 32 32s-14.32 32-32 32z" p-id="18061"></path></svg>
