<svg t="1642992314957" class="icon" viewBox="0 0 1024 1024" version="1.1" xmlns="http://www.w3.org/2000/svg" p-id="26184" width="200" height="200"><path d="M823.808 452.608V266.24c0-59.904-48.64-108.544-108.544-108.544H134.144C74.24 157.696 25.6 206.336 25.6 266.24v390.656c0 59.904 48.64 108.544 108.544 108.544h477.696c36.352 60.416 102.912 100.864 178.176 100.864 114.688 0 208.384-93.184 208.384-208.384 0-102.912-75.776-188.928-174.592-205.312zM63.488 266.24c0-38.912 31.744-70.656 70.656-70.656h581.12c38.912 0 70.656 31.744 70.656 70.656v44.032h-721.92V266.24zM593.92 727.552H134.144c-38.912 0-70.656-31.744-70.656-70.656V461.824H721.92c-81.408 28.16-139.776 105.984-139.776 196.608 0 24.064 4.096 47.616 11.776 69.12z m196.096 100.864c-93.696 0-169.984-76.288-169.984-169.984 0-93.696 76.288-169.984 169.984-169.984 93.696 0 169.984 76.288 169.984 169.984 0.512 93.696-75.776 169.984-169.984 169.984z" p-id="26185"></path><path d="M843.264 639.488h-62.976l40.96-75.776c5.12-9.216 1.536-20.992-7.68-25.6-9.216-5.12-20.992-1.536-25.6 7.68l-56.32 103.936c-3.072 5.632-3.072 12.8 0.512 18.944 3.584 5.632 9.728 9.216 16.384 9.216h62.976l-45.056 82.944c-5.12 9.216-1.536 20.992 7.68 25.6 3.072 1.536 6.144 2.048 9.216 2.048 6.656 0 13.312-3.584 16.896-9.728l60.416-111.104c3.072-6.144 3.072-12.8-0.512-18.944-3.584-6.144-9.728-9.216-16.896-9.216zM140.288 614.912h189.952v43.008H140.288z" p-id="26186"></path></svg>
