<svg t="1642641626796" class="icon" viewBox="0 0 1024 1024" version="1.1" xmlns="http://www.w3.org/2000/svg" p-id="16650" width="200" height="200"><path d="M922.28 305.784c-5.955-18.549-24.703-31.914-39.244-43.629-19.113-15.397-39.486-29.924-62.798-38.097-23.459-8.224-48.882-10.366-73.238-5.058-34.777 7.58-57.619 9.591-72.264 9.495l14.167-80.32c6.728-38.145-8.761-73.876-36.911-81.97-6.505-1.87-13.513-0.236-18.633 4.192C618.473 83.27 578.662 111.785 529.5 99.5c-49.952-12.482-114.349-27.633-137.272-32.999-13.438-3.146-27.729 0.098-38.06 9.249-16.895 14.964-24.944 42.976-19.752 72.426l14.092 79.918C328.425 240.2 295.57 258.201 259 271c-21.144 7.4-43.84 8.062-65.247 1.375-15.365-4.799-27.702-15.168-41.494-23.037-15.849-9.043-33.961-9.541-44.674 7.022-9.64 14.906-2.793 31.791 8.415 43.639 33.864 35.799 117.344 67.847 244.096-6.19l2.504 14.202C248.314 381.829 161.5 531.164 161.5 680.5c0 193.3 156.7 280 350 280s350-86.7 350-280c0-149.725-85.751-299.445-200.688-373.059l2.424-13.743A65.358 65.358 0 0 0 683 293c48-9 114-22 143 1 13.234 10.496 23.351 24.286 35.273 36.139 11.989 11.92 29.367 22.07 45.978 12.792 12.766-7.13 19.469-23.296 15.029-37.147zM479.77 145.5h64.209c18.056 0 28.441 16.169 24.766 32.384L558.228 224.3c-2.239 9.881-13.31 17.2-24.92 17.2h-42.045c-11.61 0-22.744-7.319-25.067-17.2l-10.915-46.416c-3.814-16.218 6.435-32.384 24.489-32.384z m152.568 458.083v48.34h-81.299v41.748h81.299v48.34h-81.299v70.068h-76.904v-70.068H390.15v-48.34h83.984v-41.748H390.15v-48.34h68.848l-90.82-169.678h81.055l66.406 152.1h0.977c2.113-5.695 5.451-13.916 10.01-24.658l54.932-127.441h76.904l-93.506 169.678h67.382z" p-id="16651"></path></svg>
