<svg t="1642644922517" class="icon" viewBox="0 0 1024 1024" version="1.1" xmlns="http://www.w3.org/2000/svg" p-id="23110" width="200" height="200"><path d="M379.733333 355.84c-5.973333 0-10.24-4.266667-10.24-10.24s4.266667-10.24 10.24-10.24h358.4c5.973333 0 10.24 4.266667 10.24 10.24s-4.266667 10.24-10.24 10.24h-358.4zM379.733333 446.293333c-5.973333 0-10.24-4.266667-10.24-10.24s4.266667-10.24 10.24-10.24h358.4c5.973333 0 10.24 4.266667 10.24 10.24s-4.266667 10.24-10.24 10.24h-358.4zM605.866667 693.76c-5.973333 0-10.24-4.266667-10.24-10.24s4.266667-10.24 10.24-10.24h120.32c5.973333 0 10.24 4.266667 10.24 10.24s-4.266667 10.24-10.24 10.24H605.866667zM721.066667 217.6c-5.973333 0-10.24-4.266667-10.24-10.24s4.266667-10.24 10.24-10.24h17.066666c5.973333 0 10.24 4.266667 10.24 10.24s-4.266667 10.24-10.24 10.24h-17.066666zM550.4 217.6c-5.973333 0-10.24-4.266667-10.24-10.24s4.266667-10.24 10.24-10.24h17.066667c5.973333 0 10.24 4.266667 10.24 10.24s-4.266667 10.24-10.24 10.24h-17.066667zM635.733333 217.6c-5.973333 0-10.24-4.266667-10.24-10.24s4.266667-10.24 10.24-10.24h17.066667c5.973333 0 10.24 4.266667 10.24 10.24s-4.266667 10.24-10.24 10.24h-17.066667zM379.733333 217.6c-5.973333 0-10.24-4.266667-10.24-10.24s4.266667-10.24 10.24-10.24h17.066667c5.973333 0 10.24 4.266667 10.24 10.24s-4.266667 10.24-10.24 10.24h-17.066667zM465.066667 217.6c-5.973333 0-10.24-4.266667-10.24-10.24s4.266667-10.24 10.24-10.24h17.066666c5.973333 0 10.24 4.266667 10.24 10.24s-4.266667 10.24-10.24 10.24h-17.066666z" p-id="23111"></path><path d="M279.893333 954.88c-8.533333 0-17.92-1.706667-25.6-5.973333C133.973333 935.253333 42.666667 832 42.666667 710.826667c0-107.52 71.68-202.24 175.786666-231.253334V130.56c0-34.133333 27.306667-61.44 61.44-61.44H836.266667c34.133333 0 61.44 27.306667 61.44 61.44V776.533333c0 2.56-0.853333 5.12-2.56 6.826667l-167.253334 168.96c-0.853333 0.853333-2.56 1.706667-3.413333 2.56-0.853333 0.853333-2.56 0.853333-4.266667 0.853333H279.893333z m430.08-20.48V827.733333c0-34.133333 27.306667-61.44 61.44-61.44h105.813334V130.56c0-22.186667-18.773333-40.96-40.96-40.96H279.893333c-22.186667 0-40.96 18.773333-40.96 40.96v343.893333c14.506667-2.56 29.866667-4.266667 44.373334-4.266666 50.346667 0 98.133333 15.36 139.093333 44.373333h314.88c5.973333 0 10.24 4.266667 10.24 10.24s-4.266667 10.24-10.24 10.24h-290.133333c48.64 45.226667 75.946667 109.226667 75.946666 175.786667 0 98.986667-61.44 187.733333-152.746666 223.573333h339.626666z m-426.666666-443.733333c-15.36 0-30.72 1.706667-46.08 5.12-5.973333 0.853333-11.093333 2.56-17.066667 4.266666C128 527.36 63.146667 614.4 63.146667 710.826667c0 100.693333 68.266667 188.586667 166.4 213.333333 10.24 2.56 20.48 4.266667 29.866666 5.12 7.68 0.853333 15.36 0.853333 23.04 0.853333 121.173333 0 220.16-98.986667 220.16-220.16 0-69.973333-32.426667-133.973333-87.893333-175.786666-8.533333-5.973333-17.066667-11.946667-26.453333-17.066667-30.72-17.066667-67.413333-26.453333-104.96-26.453333z m488.106666 296.106666c-22.186667 0-40.96 18.773333-40.96 40.96v92.16L861.866667 786.773333H771.413333z" p-id="23112"></path><path d="M409.6 824.32c-2.56 0-4.266667-0.853333-6.826667-2.56-1.706667-1.706667-3.413333-4.266667-3.413333-6.826667 0-2.56 0.853333-5.12 2.56-7.68 40.106667-48.64 46.08-118.613333 14.506667-173.226666-27.306667-46.933333-77.653333-75.946667-132.266667-75.946667-8.533333 0-16.213333 0.853333-24.746667 1.706667h-1.706666c-5.12 0-9.386667-3.413333-10.24-8.533334-0.853333-5.973333 2.56-11.093333 8.533333-11.946666 9.386667-1.706667 18.773333-2.56 27.306667-2.56 62.293333 0 119.466667 33.28 150.186666 86.186666 35.84 62.293333 29.013333 140.8-16.213333 196.266667-1.706667 3.413333-4.266667 5.12-7.68 5.12zM284.16 884.053333c-15.36 0-31.573333-2.56-46.933333-6.826666-5.973333-1.706667-11.946667-3.413333-17.066667-5.973334-36.693333-14.506667-66.56-40.96-86.186667-74.24-35.84-62.293333-29.013333-140.8 16.213334-196.266666 1.706667-2.56 5.12-3.413333 7.68-3.413334 2.56 0 4.266667 0.853333 6.826666 2.56 1.706667 1.706667 3.413333 4.266667 3.413334 6.826667 0 2.56-0.853333 5.12-2.56 7.68-40.106667 48.64-46.08 118.613333-14.506667 173.226667 16.213333 27.306667 40.106667 49.493333 69.973333 62.293333 5.973333 2.56 11.093333 5.12 17.066667 6.826667 15.36 5.12 30.72 6.826667 46.08 6.826666 8.533333 0 16.213333-0.853333 24.746667-1.706666h1.706666c5.12 0 9.386667 3.413333 10.24 8.533333 0.853333 5.973333-2.56 11.093333-8.533333 11.946667-9.386667 0.853333-18.773333 1.706667-28.16 1.706666z" p-id="23113"></path><path d="M228.693333 807.253333c-2.56 0-4.266667-0.853333-5.973333-1.706666-2.56-1.706667-3.413333-4.266667-4.266667-6.826667v-3.413333l9.386667-57.173334-41.813333-40.106666c-2.56-2.56-4.266667-6.826667-2.56-10.24 0.853333-3.413333 4.266667-6.826667 8.533333-6.826667l57.173333-8.533333 24.746667-52.053334c1.706667-3.413333 5.12-5.973333 9.386667-5.973333 4.266667 0 7.68 2.56 9.386666 5.973333l25.6 51.2 57.173334 7.68c4.266667 0.853333 6.826667 3.413333 8.533333 6.826667 0.853333 3.413333 0 7.68-2.56 10.24l-40.96 40.96 10.24 57.173333c0.853333 4.266667-0.853333 7.68-4.266667 10.24-1.706667 1.706667-4.266667 1.706667-5.973333 1.706667-1.706667 0-3.413333 0-4.266667-0.853333l-51.2-26.453334-51.2 27.306667c-1.706667 0-3.413333 0.853333-5.12 0.853333z m17.066667-80.213333c2.56 2.56 3.413333 5.973333 3.413333 9.386667l-6.826666 41.813333 37.546666-19.626667c1.706667-0.853333 3.413333-0.853333 5.12-0.853333 1.706667 0 3.413333 0 5.12 0.853333l37.546667 19.626667-7.68-41.813333c-0.853333-3.413333 0.853333-6.826667 2.56-9.386667l29.866667-29.866667-42.666667-5.973333c-3.413333-0.853333-5.973333-2.56-7.68-5.12L283.306667 648.533333 264.533333 686.08c-1.706667 3.413333-4.266667 5.12-7.68 5.973333l-41.813333 6.826667 30.72 28.16z" p-id="23114"></path></svg>
