<svg t="1642992171830" class="icon" viewBox="0 0 1024 1024" version="1.1" xmlns="http://www.w3.org/2000/svg" p-id="21556" width="200" height="200"><path d="M500.053333 0h22.456141C659.402105 3.054035 794.049123 62.697544 886.74807 163.84c85.243509 90.632982 133.479298 213.243509 137.25193 337.291228v20.030877c-3.233684 124.586667-51.559298 247.825965-137.162105 338.90807-92.249825 100.693333-226.178246 160.426667-362.621755 163.929825h-23.264561c-149.827368-3.323509-296.241404-75.542456-388.850526-193.57193C40.331228 741.501754 2.694737 628.143158 0 514.425263v-7.006316c3.14386-119.466667 45.541053-238.304561 124.496842-328.757894C217.01614 69.434386 357.052632 3.682807 500.053333 0m-64.044912 52.18807C342.770526 67.368421 254.652632 112.011228 187.284211 178.21193c-84.884211 82.099649-136.353684 197.614035-140.216141 315.643509-5.658947 125.754386 42.846316 252.676491 130.964211 342.590877 90.453333 94.495439 222.13614 147.312281 352.830877 141.20421 124.317193-4.13193 245.490526-61.529825 328.039298-154.498245 84.614737-93.417544 128-222.315789 117.490526-347.890527-9.431579-133.030175-80.213333-259.772632-187.823157-338.458947C688.954386 62.338246 558.618947 31.438596 436.008421 52.18807z" p-id="21557"></path><path d="M423.253333 64.763509c112.819649-22.45614 233.903158-0.718596 331.093334 61.080702 109.945263 68.53614 188.092632 185.936842 207.584561 314.116491 19.402105 118.74807-10.509474 244.682105-82.279298 341.333333-78.506667 108.50807-206.955789 179.020351-340.794386 185.757193-117.76 7.545263-237.49614-33.504561-325.973333-111.562105-91.261754-79.045614-148.839298-195.637895-155.216843-316.362105-7.09614-111.112982 28.474386-224.112281 98.178246-310.972632 66.200702-83.626667 162.672281-142.821053 267.407719-163.390877m20.569825 12.21614C281.779649 100.603509 139.946667 223.214035 92.519298 379.86807c-40.870175 128.179649-18.773333 274.593684 59.104562 384.449123 73.296842 105.903158 195.098947 176.684912 323.727719 186.475789 123.239298 11.048421 249.89193-33.324912 339.177544-118.837894 91.710877-85.872281 143.270175-212.524912 137.162105-338.099649-4.221754-130.604912-71.230877-257.077895-176.235789-334.776141C681.94807 88.387368 559.427368 58.385965 443.823158 76.979649z" p-id="21558"></path><path d="M696.409825 265.611228c11.587368-5.838596 23.174737-11.767018 34.762105-17.605614 16.34807 34.312982 37.007719 66.739649 50.122105 102.4-4.760702 43.834386-58.924912 52.277895-90.273684 72.757895 20.030877 39.163509 40.061754 78.416842 60.002807 117.670175 27.216842-13.294035 54.613333-26.58807 79.494737-44.014035-16.437895-32.785965-33.235088-65.392281-49.762807-98.178245 11.22807-5.658947 22.366316-11.317895 33.504561-16.887018 16.078596 34.582456 38.265263 66.739649 49.583158 103.38807-0.98807 24.432281-26.947368 35.570526-45.271579 46.08-55.960702 27.037193-109.765614 58.745263-167.343158 82.279298-12.036491 7.724912-24.342456 15.180351-36.558596 22.545965-21.018947-39.702456-41.049825-79.854035-61.44-119.915789l35.031579-17.51579c15.988772 30.001404 29.192982 61.529825 47.157894 90.453334 28.654035 7.275789 54.34386-21.288421 80.752281-30.450527-19.941053-39.253333-39.882105-78.506667-59.912982-117.670175-33.594386 15.719298-66.56 32.785965-97.369825 53.445614-21.288421-40.96-42.037895-82.189474-63.056842-123.239298 11.587368-6.018246 23.174737-12.036491 34.762105-17.964913 16.527719 32.336842 32.785965 64.853333 49.762807 96.920702 23.983158-4.401404 45.451228-16.078596 66.56-27.57614-20.659649-40.421053-41.319298-80.93193-61.799298-121.532632 11.497544-5.928421 23.084912-11.767018 34.582456-17.695438 20.749474 40.510877 41.319298 81.021754 62.068772 121.532631 21.46807-11.946667 46.259649-19.761404 63.775439-37.636491-12.485614-35.570526-33.055439-67.637895-49.134035-101.591579zM402.054737 401.964912c17.964912-8.084211 43.205614-4.760702 52.18807 14.821053 12.755088 25.869474 29.282807 54.792982 22.635789 84.524912-17.156491 31.797895-58.924912 36.378947-90.812631 28.564211 17.425965-14.192281 38.355088-22.815439 56.679298-35.570527-1.886316-25.6-13.024561-53.265965-33.504561-69.52421-15.090526 3.054035-28.564211 10.958596-42.487018 17.246316 5.748772 30.989474 13.832982 61.529825 19.042807 92.609122 2.425263 19.761404-15.988772 31.258947-27.755789 43.654737-5.479298-0.718596-16.527719-2.065965-22.007018-2.694737-7.994386 4.491228-15.898947 8.892632-23.803509 13.38386l26.408421 51.738947c12.575439-6.377544 25.240702-12.665263 37.816141-19.042807 2.515088 4.401404 7.455439 13.294035 9.970526 17.695439-12.844912 6.557193-25.6 13.204211-38.355088 19.851228 12.485614 24.342456 24.881404 48.774737 37.367018 73.207018 66.56-28.654035 129.527018-64.763509 194.56-96.561404 2.425263 4.850526 7.185965 14.641404 9.611228 19.49193-59.374035 29.73193-117.849825 61.170526-177.672982 89.914386-29.642105 15.000702-65.661754 14.461754-93.597193-4.13193 2.155789 7.814737 6.647018 23.62386 8.892631 31.528421 2.335439 20.839298-19.49193 28.294737-32.336842 39.343158-0.359298-65.931228-42.217544-121.442807-64.943158-181.17614-6.916491 3.323509-13.832982 6.647018-20.839298 9.970526-2.245614-4.491228-6.916491-13.473684-9.162105-17.964912 20.659649-10.599298 41.319298-21.198596 61.978947-31.88772l-22.905263-44.732631c-17.875088 9.072281-35.84 18.234386-53.715088 27.216842-2.515088-4.850526-7.365614-14.551579-9.790877-19.402105 17.875088-9.162105 35.750175-18.234386 53.625263-27.396491-7.814737-15.36-15.629474-30.809825-23.44421-46.25965 11.138246-5.658947 22.276491-11.317895 33.504561-16.976842 7.814737 15.36 15.719298 30.72 23.534035 46.08 15.36-7.814737 30.809825-15.539649 46.259649-23.084912 19.671579 27.216842-20.749474 30.989474-36.019649 43.115789 7.545263 14.821053 15.090526 29.552281 22.63579 44.373334 17.425965-8.892632 34.941754-17.605614 52.457543-26.318597-3.862456-29.192982-9.25193-58.206316-15.719298-86.950175-10.689123 5.12-21.288421 10.24-31.977544 15.36-2.155789-4.940351-6.557193-14.641404-8.712982-19.49193 37.007719-17.785263 72.308772-39.073684 110.394386-54.523509M262.287719 612.872982c16.976842 44.552982 35.750175 91.441404 78.596492 117.400702-19.581754-42.037895-41.319298-82.997895-62.697544-124.227368l-15.898948 6.826666z" p-id="21559"></path><path d="M363.52 583.769825c41.498947-16.797193 77.877895-45.630877 121.352982-57.128421 26.408421-0.718596 34.672281 28.74386 45.900351 47.157894 9.790877 20.48 29.73193 50.571228 4.940351 68.446316-35.031579 23.803509-75.632281 37.81614-112.011228 59.553684-20.120702-39.343158-40.331228-78.596491-60.182456-118.029473m49.942456 2.335438c0.898246 28.564211 22.725614 52.547368 34.672281 77.967719 22.995088-11.048421 45.720702-22.545965 68.087017-34.851929a806.714386 806.714386 0 0 0-39.432982-77.608421c-21.737544 10.24-44.463158 19.222456-63.326316 34.492631z" p-id="21560"></path></svg>
