<svg t="1642992862186" class="icon" viewBox="0 0 1024 1024" version="1.1" xmlns="http://www.w3.org/2000/svg" p-id="4801" width="200" height="200"><path d="M537.320727 299.240727c11.217455 35.84 30.952727 68.328727 57.530182 94.859637a231.889455 231.889455 0 0 0 156.578909 67.956363v368.965818a59.112727 59.112727 0 0 1-52.317091 58.973091l-6.423272 0.325819h-173.149091v58.88h90.158545c14.429091 0.093091 26.670545 10.612364 28.951273 24.855272l0.418909 4.794182a29.602909 29.602909 0 0 1-24.622546 29.277091l-4.747636 0.372364H198.562909a29.463273 29.463273 0 0 1-29.463273-29.649455c0-14.754909 10.705455-26.903273 24.669091-29.230545l4.701091-0.418909H282.996364v-58.926546H105.285818a58.973091 58.973091 0 0 1-58.414545-52.736l-0.325818-6.516364V358.4a59.112727 59.112727 0 0 1 52.31709-58.88l6.423273-0.325818h432.034909z m-76.8 591.080728H342.016v58.88h118.458182v-58.926546zM549.701818 417.652364h-119.621818l-2.420364 0.139636-2.420363 0.279273-5.12 0.930909c-11.077818 2.978909-17.268364 10.565818-18.664728 22.900363l-0.325818 5.585455v294.818909c0 19.828364 10.24 29.789091 30.673455 29.789091 18.338909 0 26.903273-8.005818 28.392727-24.110545l0.279273-5.678546v-88.436364h89.227636l4.701091-0.325818a29.184 29.184 0 0 0 23.924364-24.203636l0.325818-4.747636V447.022545l-0.325818-4.747636a29.044364 29.044364 0 0 0-28.625455-24.622545z m-237.800727 0a29.463273 29.463273 0 0 0-28.951273 24.855272l-0.372363 4.794182v295.005091l0.372363 4.794182a29.463273 29.463273 0 0 0 28.951273 24.808727 30.580364 30.580364 0 0 0 29.975273-24.808727l0.372363-4.794182V447.301818l-0.372363-4.794182a30.580364 30.580364 0 0 0-29.975273-24.855272z m148.526545 58.693818l58.554182 0.093091v118.784H460.474182v-118.923637 0.046546zM770.606545 0a206.848 206.848 0 1 1 0 413.742545 206.848 206.848 0 0 1 0-413.742545z m22.574546 156.718545a72.564364 72.564364 0 0 0-61.812364 34.257455l-3.863272 7.168-0.512 1.722182a5.957818 5.957818 0 0 0 1.489454 3.909818c2.373818 3.072 11.915636 8.052364 19.502546 8.052364l3.351272-0.325819 2.094546-0.558545a37.143273 37.143273 0 0 0 5.399272-2.466909 40.354909 40.354909 0 0 1 58.740364-11.031273l4.049455 3.584 33.978181 33.885091 3.537455 4.049455a40.308364 40.308364 0 0 1-56.366545 56.413091h-0.046546l-4.096-3.584-23.738182-23.738182-2.327272-0.418909a18.106182 18.106182 0 0 0-5.585455 0.418909c-4.561455 1.024-6.516364 0.884364-11.496727 1.349818l-9.029818 0.232727-3.723637-0.093091-1.908363 0.093091a3.397818 3.397818 0 0 0-2.46691 1.908364c-0.698182 1.582545-0.558545 3.630545 0.465455 6.237091l2.932364 3.165091 33.885091 33.885091 5.445818 4.933818a72.704 72.704 0 0 0 97.512727-4.933818 72.936727 72.936727 0 0 0 4.933818-97.466182l-4.933818-5.445818-37.050182-36.864-5.213091-4.235637a71.586909 71.586909 0 0 0-36.631272-13.870545l-6.516364-0.232728z m-79.127273-79.127272A72.657455 72.657455 0 0 0 657.687273 196.421818l4.933818 5.399273 37.003636 36.864 5.213091 4.189091a72.890182 72.890182 0 0 0 104.913455-20.107637l3.909818-7.168 0.698182-1.954909c0.093091-1.303273-0.465455-2.466909-1.675637-3.677091a34.629818 34.629818 0 0 0-19.502545-8.052363 21.038545 21.038545 0 0 0-10.845091 3.258182 40.354909 40.354909 0 0 1-58.740364 11.077818l-4.049454-3.584-33.885091-33.885091-3.630546-4.049455a40.354909 40.354909 0 0 1 56.459637-56.413091l4.049454 3.630546 23.738182 23.691636 2.699637 1.954909 5.352727-1.349818c3.816727-0.837818 8.052364-1.582545 11.357091-1.861818l9.029818-0.372364 3.723636 0.186182 2.234182-0.279273c1.303273-0.279273 2.141091-0.884364 2.606546-1.815272 0.605091-1.349818 0.279273-3.397818-0.93091-6.190546l-2.885818-3.118545-33.885091-33.931637-5.445818-4.887272a70.935273 70.935273 0 0 0-18.385454-10.984728 63.860364 63.860364 0 0 0-23.272728-4.840727l-6.981818 0.139637 2.56-0.698182z" p-id="4802"></path></svg>
