<svg t="1642645901180" class="icon" viewBox="0 0 1024 1024" version="1.1" xmlns="http://www.w3.org/2000/svg" p-id="27606" width="200" height="200"><path d="M950.656 678.4a32 32 0 0 1 3.712 40.896l-3.712 4.416-226.944 226.944a32 32 0 0 1-40.832 3.712l-4.48-3.712-151.232-151.296a32 32 0 0 1 40.832-48.96l4.416 3.712 128.64 128.64 204.352-204.288a32 32 0 0 1 45.248 0zM436.288 64a221.12 221.12 0 0 1 151.104 382.528c65.408 37.568 121.088 99.2 160.32 176.96a32 32 0 1 1-57.152 28.8c-37.12-73.6-90.368-129.28-151.232-158.976l-13.44-6.016a219.84 219.84 0 0 1-72.576 18.304h-1.856l-1.088 0.192a224.512 224.512 0 0 1-14.08 0.448l-12.16-0.384-1.92-0.064 14.08 0.384a218.048 218.048 0 0 1-89.664-18.944l1.024-0.448c-105.92 43.712-191.04 161.28-216.64 305.664l-2.688 16.768c-3.2 22.08 17.408 45.12 42.688 48.576l6.4 0.384h289.664a32 32 0 0 1 5.76 63.488l-5.76 0.512H177.408c-65.408 0-121.6-57.728-112.448-122.048 22.4-156.16 106.88-289.28 220.16-353.856A221.184 221.184 0 0 1 436.288 64z m0 64a157.184 157.184 0 0 0-78.144 293.376 24.32 24.32 0 0 1 5.824 2.24c19.392 10.176 39.488 16.256 59.968 18.048l12.352 0.576c24.832 0 49.152-6.4 72.32-18.56a32 32 0 0 1 5.824-2.368A157.12 157.12 0 0 0 436.288 128z" p-id="27607"></path></svg>
