<?xml version="1.0" standalone="no"?><!DOCTYPE svg PUBLIC "-//W3C//DTD SVG 1.1//EN" "http://www.w3.org/Graphics/SVG/1.1/DTD/svg11.dtd"><svg t="1642577592357" class="icon" viewBox="0 0 1024 1024" version="1.1" xmlns="http://www.w3.org/2000/svg" p-id="1821" xmlns:xlink="http://www.w3.org/1999/xlink" width="200" height="200"><defs><style type="text/css"></style></defs><path d="M768 30.72 290.133333 30.72c-54.613333 0-98.986667 44.373333-98.986667 98.986667l0 740.693333c0 54.613333 44.373333 98.986667 98.986667 98.986667l276.48 0c0 0 68.266667 0 112.64 23.893333 3.413333 3.413333 6.826667 3.413333 10.24 3.413333 6.826667 0 13.653333-3.413333 17.066667-10.24 6.826667-10.24 3.413333-20.48-6.826667-23.893333-51.2-30.72-126.293333-30.72-129.706667-30.72L290.133333 931.84c-34.133333 0-64.853333-27.306667-64.853333-64.853333L225.28 129.706667c0-34.133333 27.306667-64.853333 64.853333-64.853333l481.28 0c34.133333 0 64.853333 27.306667 64.853333 64.853333l0 740.693333c0 34.133333-27.306667 64.853333-64.853333 64.853333-10.24 0-17.066667 6.826667-17.066667 17.066667s6.826667 17.066667 17.066667 17.066667c54.613333 0 98.986667-44.373333 98.986667-98.986667L870.4 129.706667C870.4 75.093333 826.026667 30.72 768 30.72z" p-id="1822"></path><path d="M624.64 122.88c0-10.24-6.826667-17.066667-17.066667-17.066667l-157.013333 0c-10.24 0-17.066667 6.826667-17.066667 17.066667s6.826667 17.066667 17.066667 17.066667l157.013333 0C617.813333 139.946667 624.64 133.12 624.64 122.88z" p-id="1823"></path><path d="M460.8 747.52c10.24 0 17.066667-6.826667 17.066667-17.066667L477.866667 310.613333c0-6.826667-3.413333-13.653333-10.24-17.066667-6.826667-3.413333-13.653333 0-20.48 3.413333l-119.466667 119.466667c-6.826667 6.826667-6.826667 20.48 0 27.306667 6.826667 6.826667 20.48 6.826667 27.306667 0l88.746667-88.746667 0 372.053333C443.733333 737.28 450.56 747.52 460.8 747.52z" p-id="1824"></path><path d="M703.146667 593.92 614.4 682.666667 614.4 310.613333c0-10.24-6.826667-17.066667-17.066667-17.066667s-17.066667 6.826667-17.066667 17.066667l0 416.426667c0 6.826667 3.413333 13.653333 10.24 17.066667 3.413333 0 3.413333 0 6.826667 0 3.413333 0 10.24-3.413333 13.653333-6.826667l119.466667-119.466667c6.826667-6.826667 6.826667-20.48 0-27.306667C723.626667 587.093333 709.973333 587.093333 703.146667 593.92z" p-id="1825"></path></svg>