<svg data-name="图层 1" id="图层_1" xmlns="http://www.w3.org/2000/svg" width="128" viewBox="0 0 256 256" height="128" style="font-size: 128px;">
    <defs>
        <style>.cls-1{fill:#ba1a1a;}.cls-2{fill:#1a4375;}.cls-3{fill:#94d9ff;}.cls-4{fill:#097c4a;}.cls-5{fill:#f4704d;}</style>
    </defs>
    <title>手机与电脑通信</title>
    <g transform="matrix(0.27813513,0,0,0.27813513,-14.297285,-14.525485)">
        <path d="M537.66,147.62h0c-181.35,0-328.9,147.56-328.9,328.92s147.55,328.92,328.9,328.94h0c181.37,0,328.93-147.56,328.93-328.94S719,147.62,537.66,147.62ZM240.47,492.21H357.65c1.1,44.91,6.93,87.19,16.61,125.31H275.63A295.5,295.5,0,0,1,240.47,492.21Zm312.85-188V180.7c42.57,9.38,80.4,56.42,104.77,123.55ZM668.1,335.58c10.49,37.85,17,80.44,18.19,125.3h-133V335.58ZM522,180.69V304.25H417.19C441.57,237.1,479.41,190.06,522,180.69Zm0,154.89v125.3H389c1.23-44.86,7.7-87.45,18.19-125.3ZM357.65,460.88H240.47a295.41,295.41,0,0,1,35.16-125.3h98.63C364.58,373.69,358.75,416,357.65,460.88ZM389,492.21H522V617.52H407.18C396.69,579.66,390.22,537.07,389,492.21ZM522,648.84V772.4C479.41,763,441.57,716,417.19,648.84Zm31.33,123.55V648.84H658.09C633.72,716,595.89,763,553.32,772.39Zm0-154.87V492.21h133c-1.23,44.86-7.7,87.45-18.19,125.31ZM717.63,492.21H834.84a295.5,295.5,0,0,1-35.16,125.31H701C710.7,579.4,716.53,537.12,717.63,492.21Zm0-31.33c-1.1-44.91-6.93-87.19-16.6-125.3h98.65a295.41,295.41,0,0,1,35.16,125.3Zm62.45-156.63H691.94c-15-45.24-35.77-83-60.63-110.12A298.78,298.78,0,0,1,780.08,304.25ZM444,194.14c-24.85,27.12-45.64,64.88-60.6,110.11H295.23A298.84,298.84,0,0,1,444,194.14ZM295.23,648.84h88.12c15,45.23,35.75,83,60.6,110.11A298.84,298.84,0,0,1,295.23,648.84ZM631.31,759c24.86-27.11,45.66-64.88,60.63-110.12h88.14A298.78,298.78,0,0,1,631.31,759Z" class="cls-1"></path>
        <path d="M437.23,587.21H108.93A18.76,18.76,0,0,0,90.18,606V821.09a18.76,18.76,0,0,0,18.76,18.75H437.23A18.76,18.76,0,0,0,456,821.09V606A18.76,18.76,0,0,0,437.23,587.21Z" class="cls-2"></path>
        <rect x="115.28" class="cls-3" y="613.74" width="315.6" height="178.47"></rect>
        <path d="M477.06,891H69.12a17.3,17.3,0,1,0,0,34.59H477.06a17.3,17.3,0,0,0,0-34.59Z" class="cls-2"></path>
        <rect x="225.32" class="cls-2" y="852.88" width="95.54" height="25.79"></rect>
        <path d="M218.28,703a23.74,23.74,0,1,1-23.73-23.73A23.73,23.73,0,0,1,218.28,703Z" class="cls-4"></path>
        <path d="M296.83,703a23.74,23.74,0,1,1-23.74-23.73A23.74,23.74,0,0,1,296.83,703Z" class="cls-1"></path>
        <path d="M375.36,703a23.74,23.74,0,1,1-23.73-23.73A23.73,23.73,0,0,1,375.36,703Z" class="cls-5"></path>
        <path d="M948.36,99.27H784.8a23.46,23.46,0,0,0-23.45,23.46V391.8a23.46,23.46,0,0,0,23.46,23.46H948.36a23.46,23.46,0,0,0,23.46-23.46V122.73A23.46,23.46,0,0,0,948.36,99.27ZM784.31,371.12V143.41H948.85V371.12Z" class="cls-2"></path>
        <polygon class="cls-3" points="784.31 143.41 784.31 371.12 948.86 371.12 948.86 143.41 784.31 143.41"></polygon>
        <path d="M866.79,223.07a88.94,88.94,0,0,1,62.28,25.4l9-9a101.85,101.85,0,0,0-143.06.39l9,9A89,89,0,0,1,866.79,223.07Z" class="cls-1"></path>
        <path d="M866.79,255.15a56.94,56.94,0,0,1,39.6,16l9.06-9.07a69.86,69.86,0,0,0-97.73.39l9.06,9.06A57,57,0,0,1,866.79,255.15Z" class="cls-1"></path>
        <path d="M866.38,287a24.49,24.49,0,0,1,17.36,7.21l9-9.05a37.28,37.28,0,0,0-52.4-.38l9,9A24.51,24.51,0,0,1,866.38,287Z" class="cls-1"></path>
    </g>
</svg>